<mxfile host="app.diagrams.net" agent="Mozilla/5.0 (Windows NT 10.0; Win64; x64) AppleWebKit/537.36 (KHTML, like Gecko) Chrome/130.0.0.0 Safari/537.36 Edg/130.0.0.0" version="24.8.4">
  <diagram name="第 1 页" id="HZtBqGjs3L4EgFuf9A-9">
    <mxGraphModel dx="1803" dy="1093" grid="1" gridSize="10" guides="1" tooltips="1" connect="1" arrows="1" fold="1" page="1" pageScale="1" pageWidth="827" pageHeight="1169" math="0" shadow="0">
      <root>
        <mxCell id="0" />
        <mxCell id="1" parent="0" />
        <mxCell id="Ew5K_JV4nGrAy312zX9o-1" value="&lt;font style=&quot;font-size: 36px;&quot;&gt;Server层&lt;/font&gt;" style="rounded=0;whiteSpace=wrap;html=1;" vertex="1" parent="1">
          <mxGeometry x="140" y="400" width="1330" height="450" as="geometry" />
        </mxCell>
        <mxCell id="Ew5K_JV4nGrAy312zX9o-2" value="" style="edgeStyle=orthogonalEdgeStyle;rounded=0;orthogonalLoop=1;jettySize=auto;html=1;" edge="1" parent="1" source="Ew5K_JV4nGrAy312zX9o-5" target="Ew5K_JV4nGrAy312zX9o-10">
          <mxGeometry relative="1" as="geometry" />
        </mxCell>
        <mxCell id="Ew5K_JV4nGrAy312zX9o-3" value="" style="edgeStyle=orthogonalEdgeStyle;rounded=0;orthogonalLoop=1;jettySize=auto;html=1;" edge="1" parent="1" source="Ew5K_JV4nGrAy312zX9o-5" target="Ew5K_JV4nGrAy312zX9o-20">
          <mxGeometry relative="1" as="geometry" />
        </mxCell>
        <mxCell id="Ew5K_JV4nGrAy312zX9o-4" value="语法树" style="edgeLabel;html=1;align=center;verticalAlign=middle;resizable=0;points=[];" vertex="1" connectable="0" parent="Ew5K_JV4nGrAy312zX9o-3">
          <mxGeometry x="-0.1817" y="-1" relative="1" as="geometry">
            <mxPoint as="offset" />
          </mxGeometry>
        </mxCell>
        <mxCell id="Ew5K_JV4nGrAy312zX9o-5" value="解析器" style="rounded=0;whiteSpace=wrap;html=1;" vertex="1" parent="1">
          <mxGeometry x="292" y="447" width="120" height="60" as="geometry" />
        </mxCell>
        <mxCell id="Ew5K_JV4nGrAy312zX9o-6" style="edgeStyle=orthogonalEdgeStyle;rounded=0;orthogonalLoop=1;jettySize=auto;html=1;exitX=0;exitY=0.5;exitDx=0;exitDy=0;" edge="1" parent="1" source="Ew5K_JV4nGrAy312zX9o-8" target="Ew5K_JV4nGrAy312zX9o-5">
          <mxGeometry relative="1" as="geometry" />
        </mxCell>
        <mxCell id="Ew5K_JV4nGrAy312zX9o-7" value="建立连接&lt;div&gt;&lt;br&gt;&lt;/div&gt;&lt;div&gt;发送SQL语句&lt;/div&gt;" style="edgeLabel;html=1;align=center;verticalAlign=middle;resizable=0;points=[];" vertex="1" connectable="0" parent="Ew5K_JV4nGrAy312zX9o-6">
          <mxGeometry x="-0.1723" y="1" relative="1" as="geometry">
            <mxPoint y="22" as="offset" />
          </mxGeometry>
        </mxCell>
        <mxCell id="Ew5K_JV4nGrAy312zX9o-8" value="&lt;font style=&quot;font-size: 36px;&quot;&gt;client&lt;/font&gt;" style="rounded=0;whiteSpace=wrap;html=1;" vertex="1" parent="1">
          <mxGeometry x="400" y="260" width="840" height="70" as="geometry" />
        </mxCell>
        <mxCell id="Ew5K_JV4nGrAy312zX9o-9" value="" style="edgeStyle=orthogonalEdgeStyle;rounded=0;orthogonalLoop=1;jettySize=auto;html=1;" edge="1" parent="1" source="Ew5K_JV4nGrAy312zX9o-10" target="Ew5K_JV4nGrAy312zX9o-12">
          <mxGeometry relative="1" as="geometry" />
        </mxCell>
        <mxCell id="Ew5K_JV4nGrAy312zX9o-10" value="词法解析" style="ellipse;whiteSpace=wrap;html=1;" vertex="1" parent="1">
          <mxGeometry x="466" y="437" width="120" height="80" as="geometry" />
        </mxCell>
        <mxCell id="Ew5K_JV4nGrAy312zX9o-11" value="" style="edgeStyle=orthogonalEdgeStyle;rounded=0;orthogonalLoop=1;jettySize=auto;html=1;" edge="1" parent="1" source="Ew5K_JV4nGrAy312zX9o-12" target="Ew5K_JV4nGrAy312zX9o-14">
          <mxGeometry relative="1" as="geometry" />
        </mxCell>
        <mxCell id="Ew5K_JV4nGrAy312zX9o-12" value="词法单元" style="rounded=0;whiteSpace=wrap;html=1;" vertex="1" parent="1">
          <mxGeometry x="666" y="447" width="120" height="60" as="geometry" />
        </mxCell>
        <mxCell id="Ew5K_JV4nGrAy312zX9o-13" value="" style="edgeStyle=orthogonalEdgeStyle;rounded=0;orthogonalLoop=1;jettySize=auto;html=1;" edge="1" parent="1" source="Ew5K_JV4nGrAy312zX9o-14" target="Ew5K_JV4nGrAy312zX9o-16">
          <mxGeometry relative="1" as="geometry" />
        </mxCell>
        <mxCell id="Ew5K_JV4nGrAy312zX9o-14" value="语法解析" style="ellipse;whiteSpace=wrap;html=1;" vertex="1" parent="1">
          <mxGeometry x="836" y="437" width="120" height="80" as="geometry" />
        </mxCell>
        <mxCell id="Ew5K_JV4nGrAy312zX9o-15" value="" style="edgeStyle=orthogonalEdgeStyle;rounded=0;orthogonalLoop=1;jettySize=auto;html=1;" edge="1" parent="1" source="Ew5K_JV4nGrAy312zX9o-16" target="Ew5K_JV4nGrAy312zX9o-21">
          <mxGeometry relative="1" as="geometry" />
        </mxCell>
        <mxCell id="Ew5K_JV4nGrAy312zX9o-16" value="抽象语法树" style="rounded=0;whiteSpace=wrap;html=1;" vertex="1" parent="1">
          <mxGeometry x="1019" y="447" width="120" height="60" as="geometry" />
        </mxCell>
        <mxCell id="Ew5K_JV4nGrAy312zX9o-17" value="" style="edgeStyle=orthogonalEdgeStyle;rounded=0;orthogonalLoop=1;jettySize=auto;html=1;" edge="1" parent="1" source="Ew5K_JV4nGrAy312zX9o-20" target="Ew5K_JV4nGrAy312zX9o-22">
          <mxGeometry relative="1" as="geometry" />
        </mxCell>
        <mxCell id="Ew5K_JV4nGrAy312zX9o-18" value="" style="edgeStyle=orthogonalEdgeStyle;rounded=0;orthogonalLoop=1;jettySize=auto;html=1;" edge="1" parent="1" source="Ew5K_JV4nGrAy312zX9o-20" target="Ew5K_JV4nGrAy312zX9o-23">
          <mxGeometry relative="1" as="geometry">
            <Array as="points">
              <mxPoint x="352" y="697" />
              <mxPoint x="352" y="697" />
            </Array>
          </mxGeometry>
        </mxCell>
        <mxCell id="Ew5K_JV4nGrAy312zX9o-19" value="执行计划" style="edgeLabel;html=1;align=center;verticalAlign=middle;resizable=0;points=[];" vertex="1" connectable="0" parent="Ew5K_JV4nGrAy312zX9o-18">
          <mxGeometry x="-0.1623" y="1" relative="1" as="geometry">
            <mxPoint as="offset" />
          </mxGeometry>
        </mxCell>
        <mxCell id="Ew5K_JV4nGrAy312zX9o-20" value="优化器" style="rounded=0;whiteSpace=wrap;html=1;" vertex="1" parent="1">
          <mxGeometry x="292" y="576" width="120" height="60" as="geometry" />
        </mxCell>
        <mxCell id="Ew5K_JV4nGrAy312zX9o-21" value="语义分析" style="ellipse;whiteSpace=wrap;html=1;" vertex="1" parent="1">
          <mxGeometry x="1179" y="437" width="120" height="80" as="geometry" />
        </mxCell>
        <mxCell id="Ew5K_JV4nGrAy312zX9o-22" value="const" style="ellipse;whiteSpace=wrap;html=1;" vertex="1" parent="1">
          <mxGeometry x="466" y="566" width="120" height="80" as="geometry" />
        </mxCell>
        <mxCell id="Ew5K_JV4nGrAy312zX9o-23" value="执行器" style="rounded=0;whiteSpace=wrap;html=1;" vertex="1" parent="1">
          <mxGeometry x="292" y="707" width="387" height="60" as="geometry" />
        </mxCell>
      </root>
    </mxGraphModel>
  </diagram>
</mxfile>
